<mxfile host="app.diagrams.net" modified="2023-12-12T19:10:55.217Z" agent="Mozilla/5.0 (Windows NT 10.0; Win64; x64) AppleWebKit/537.36 (KHTML, like Gecko) Chrome/120.0.0.0 Safari/537.36" version="22.1.8" etag="Vk-3GZ5Nx0pVBdM0ApeE" type="github">
  <diagram name="Page-1" id="GoUrNpxuWjJ3McE_TXSN">
    <mxGraphModel>
      <root>
        <mxCell id="0" />
        <mxCell id="1" parent="0" />
      </root>
    </mxGraphModel>
  </diagram>
</mxfile>
